<?xml version="1.0" encoding="utf-8"?>
<!-- Generator: Adobe Illustrator 28.0.0, SVG Export Plug-In . SVG Version: 6.00 Build 0)  -->
<svg version="1.1" id="Layer_1" xmlns="http://www.w3.org/2000/svg" xmlns:xlink="http://www.w3.org/1999/xlink" x="0px" y="0px"
	 viewBox="0 0 361.58 561.66" style="enable-background:new 0 0 361.58 561.66;" xml:space="preserve">
<style type="text/css">
	.st0{fill:#978154;}
</style>
<g>
	<path class="st0" d="M224.93,80.25c6.68-5.61,13.95-10.54,21.7-14.67H114.1c7.75,4.14,15.02,9.06,21.7,14.67H224.93z"/>
	<path class="st0" d="M135.91,481.5c-6.68,5.61-13.94,10.54-21.69,14.67h132.46c-7.75-4.14-15.02-9.06-21.69-14.67H135.91z"/>
	<path class="st0" d="M46.48,50.9c0.97,3.81,1.55,7.78,1.55,11.89v2.78v17.79h0v9.15h0v43.18h0.01l0.06,332.14h0.01h0v21.01h0v7.34
		v2.69c0,4.14-0.58,8.14-1.57,11.98C41.19,531.59,22.38,546.98,0,546.98v14.67c0.06,0,0.12-0.01,0.18-0.01v0.01h361.41v-14.67
		c-22.38,0-41.19-15.39-46.54-36.13c-0.99-3.84-1.57-7.84-1.57-11.98v-2.69v0v-7.34v-62.79h-0.01L313.4,92.51h0h0V76.37h0v-10.8
		v-2.78c0-4.11,0.57-8.08,1.55-11.89c5.31-20.79,24.14-36.22,46.56-36.22V0H0.1v0.01C0.04,0.01-0.02,0-0.08,0v14.67
		C22.34,14.67,41.17,30.11,46.48,50.9z M321.32,546.98H40.26c10.87-9.11,18.6-21.83,21.37-36.3c0.73-3.83,1.15-7.77,1.15-11.81
		v-2.69v-0.27v-0.08c0.85-0.06,1.72-0.05,2.57-0.12c0.29-0.03,0.59-0.04,0.88-0.07c3.11-0.3,6.18-0.76,9.21-1.31
		c0.4-0.07,0.81-0.14,1.21-0.22c2.97-0.58,5.89-1.29,8.76-2.1c0.42-0.12,0.85-0.24,1.27-0.36c2.87-0.85,5.69-1.8,8.46-2.87
		c0.37-0.14,0.73-0.29,1.1-0.43c2.81-1.12,5.56-2.34,8.25-3.67c0.26-0.13,0.52-0.27,0.78-0.4c1.7-0.86,3.33-1.83,4.98-2.78
		c1.05-0.6,2.13-1.13,3.16-1.76c0.09-0.05,0.17-0.11,0.26-0.17c5.55-3.45,10.78-7.37,15.63-11.72
		c22.6-20.28,36.84-49.69,36.84-82.38l-0.04-97.26h0.48c15.49,0,28.09,12.6,28.09,28.1l0.08,69.17c0,32.67,14.24,62.07,36.82,82.35
		h0c4.86,4.36,10.1,8.3,15.67,11.75c0.08,0.05,0.15,0.1,0.22,0.14c1.03,0.64,2.12,1.17,3.17,1.77c1.65,0.95,3.29,1.92,4.99,2.79
		c0.25,0.13,0.5,0.26,0.75,0.38c2.7,1.34,5.46,2.56,8.27,3.68c0.36,0.14,0.72,0.29,1.08,0.43c2.77,1.07,5.6,2.03,8.47,2.88
		c0.42,0.12,0.83,0.24,1.25,0.36c2.88,0.81,5.81,1.52,8.78,2.1c0.4,0.08,0.8,0.14,1.2,0.22c3.04,0.56,6.11,1.01,9.22,1.31
		c0.29,0.03,0.59,0.04,0.88,0.07c1.07,0.1,2.18,0.09,3.26,0.15v0.1v0.22v2.69c0,4.05,0.42,7.99,1.15,11.83
		C302.73,525.16,310.45,537.87,321.32,546.98z M62.78,440.21c25.04-3.57,44.35-25.16,44.35-51.18l-0.08-216.32
		c0-26.01-19.31-47.59-44.35-51.17L62.7,80.52c49.53,3.76,88.68,45.27,88.68,95.74l0.09,209.21c0,50.48-39.15,91.98-88.68,95.74
		V440.21z M62.77,425.32l-0.06-288.89c16.9,3.42,29.67,18.38,29.67,36.28l0.08,216.32C92.46,406.94,79.69,421.91,62.77,425.32z
		 M253.75,389.04c0,26.25,19.67,47.99,45.04,51.26l0.01,40.97c-49.86-3.42-89.37-45.08-89.37-95.8l-0.08-69.17
		c0-10.76-4.03-20.57-10.61-28.09h9.18h17.52c15.49,0,28.09,12.6,28.09,28.09h7.49l-7.34,0.01L253.75,389.04z M268.43,389.03
		l-0.08-72.73h-0.15c0-14.72-7.48-27.72-18.84-35.42c11.36-7.7,18.84-20.71,18.84-35.43h0.15v-72.74
		c0-18.15,13.13-33.25,30.38-36.39l0.06,289.1C281.55,422.28,268.43,407.17,268.43,389.03z M298.72,121.44
		c-25.38,3.27-45.05,25.02-45.05,51.27v72.74h-0.15c0,15.49-12.6,28.09-28.09,28.09h-17.52h-9.18c6.58-7.52,10.61-17.34,10.61-28.09
		v-69.19c0-50.71,39.51-92.37,89.37-95.79V121.44z M321.24,14.67c-10.89,9.13-18.62,21.87-21.38,36.37
		c-0.72,3.81-1.14,7.72-1.14,11.74v2.78v0.22v0.09c-0.97,0.06-1.96,0.05-2.92,0.13c-0.33,0.03-0.66,0.04-0.99,0.08
		c-3.02,0.29-6,0.71-8.94,1.24c-0.41,0.07-0.82,0.14-1.23,0.22c-2.93,0.56-5.82,1.23-8.66,2.02c-0.34,0.09-0.68,0.19-1.02,0.29
		c-2.93,0.84-5.82,1.78-8.64,2.85c-0.13,0.05-0.26,0.11-0.4,0.16c-5.35,2.05-10.47,4.56-15.39,7.38
		c-6.18,3.55-12.03,7.62-17.39,12.25c-23.52,20.31-38.46,50.32-38.46,83.77v69.19c0,15.49-12.6,28.09-28.09,28.09h-0.49l-0.04-97.28
		c0-33.44-14.92-63.44-38.44-83.75c-5.37-4.64-11.22-8.71-17.41-12.27c-4.92-2.82-10.04-5.33-15.39-7.39
		c-0.13-0.05-0.26-0.1-0.39-0.15c-2.83-1.07-5.71-2.01-8.64-2.85c-0.34-0.1-0.68-0.2-1.02-0.29c-2.84-0.79-5.73-1.46-8.66-2.02
		c-0.41-0.08-0.82-0.15-1.24-0.22c-2.94-0.53-5.92-0.95-8.94-1.24c-0.33-0.03-0.66-0.05-0.99-0.08c-0.74-0.06-1.49-0.05-2.23-0.1
		v-0.07v-0.27v-2.78c0-4.01-0.42-7.92-1.14-11.72c-2.75-14.51-10.49-27.26-21.38-36.39H321.24z"/>
</g>
</svg>
