<?xml version="1.0" encoding="utf-8"?>
<!-- Generator: Adobe Illustrator 28.0.0, SVG Export Plug-In . SVG Version: 6.00 Build 0)  -->
<svg version="1.1" id="Layer_1" xmlns="http://www.w3.org/2000/svg" xmlns:xlink="http://www.w3.org/1999/xlink" x="0px" y="0px"
	 viewBox="0 0 1493.13 561.66" style="enable-background:new 0 0 1493.13 561.66;" xml:space="preserve">
<style type="text/css">
	.st0{fill:#978154;}
</style>
<g>
	<path class="st0" d="M224.93,80.25c6.68-5.61,13.95-10.54,21.7-14.67H114.1c7.75,4.14,15.02,9.06,21.7,14.67H224.93z"/>
	<path class="st0" d="M135.91,481.5c-6.68,5.61-13.94,10.54-21.69,14.67h132.46c-7.75-4.14-15.02-9.06-21.69-14.67H135.91z"/>
	<path class="st0" d="M46.48,50.9c0.97,3.81,1.55,7.78,1.55,11.89v2.78v17.79l0,0v9.15l0,0v43.18h0.01l0.06,332.14h0.01l0,0v21.01
		l0,0v7.34v2.69c0,4.14-0.58,8.14-1.57,11.98C41.19,531.59,22.38,546.98,0,546.98v14.67c0.06,0,0.12-0.01,0.18-0.01v0.01h361.41
		v-14.67c-22.38,0-41.19-15.39-46.54-36.13c-0.99-3.84-1.57-7.84-1.57-11.98v-2.69l0,0v-7.34v-62.79h-0.01L313.4,92.51l0,0l0,0
		V76.37l0,0v-10.8v-2.78c0-4.11,0.57-8.08,1.55-11.89c5.31-20.79,24.14-36.22,46.56-36.22V0H0.1v0.01C0.04,0.01-0.02,0-0.08,0v14.67
		C22.34,14.67,41.17,30.11,46.48,50.9z M321.32,546.98H40.26c10.87-9.11,18.6-21.83,21.37-36.3c0.73-3.83,1.15-7.77,1.15-11.81
		v-2.69v-0.27v-0.08c0.85-0.06,1.72-0.05,2.57-0.12c0.29-0.03,0.59-0.04,0.88-0.07c3.11-0.3,6.18-0.76,9.21-1.31
		c0.4-0.07,0.81-0.14,1.21-0.22c2.97-0.58,5.89-1.29,8.76-2.1c0.42-0.12,0.85-0.24,1.27-0.36c2.87-0.85,5.69-1.8,8.46-2.87
		c0.37-0.14,0.73-0.29,1.1-0.43c2.81-1.12,5.56-2.34,8.25-3.67c0.26-0.13,0.52-0.27,0.78-0.4c1.7-0.86,3.33-1.83,4.98-2.78
		c1.05-0.6,2.13-1.13,3.16-1.76c0.09-0.05,0.17-0.11,0.26-0.17c5.55-3.45,10.78-7.37,15.63-11.72
		c22.6-20.28,36.84-49.69,36.84-82.38l-0.04-97.26h0.48c15.49,0,28.09,12.6,28.09,28.1l0.08,69.17c0,32.67,14.24,62.07,36.82,82.35
		l0,0c4.86,4.36,10.1,8.3,15.67,11.75c0.08,0.05,0.15,0.1,0.22,0.14c1.03,0.64,2.12,1.17,3.17,1.77c1.65,0.95,3.29,1.92,4.99,2.79
		c0.25,0.13,0.5,0.26,0.75,0.38c2.7,1.34,5.46,2.56,8.27,3.68c0.36,0.14,0.72,0.29,1.08,0.43c2.77,1.07,5.6,2.03,8.47,2.88
		c0.42,0.12,0.83,0.24,1.25,0.36c2.88,0.81,5.81,1.52,8.78,2.1c0.4,0.08,0.8,0.14,1.2,0.22c3.04,0.56,6.11,1.01,9.22,1.31
		c0.29,0.03,0.59,0.04,0.88,0.07c1.07,0.1,2.18,0.09,3.26,0.15v0.1v0.22v2.69c0,4.05,0.42,7.99,1.15,11.83
		C302.73,525.16,310.45,537.87,321.32,546.98z M62.78,440.21c25.04-3.57,44.35-25.16,44.35-51.18l-0.08-216.32
		c0-26.01-19.31-47.59-44.35-51.17l0-41.02c49.53,3.76,88.68,45.27,88.68,95.74l0.09,209.21c0,50.48-39.15,91.98-88.68,95.74v-41
		H62.78z M62.77,425.32l-0.06-288.89c16.9,3.42,29.67,18.38,29.67,36.28l0.08,216.32C92.46,406.94,79.69,421.91,62.77,425.32z
		 M253.75,389.04c0,26.25,19.67,47.99,45.04,51.26l0.01,40.97c-49.86-3.42-89.37-45.08-89.37-95.8l-0.08-69.17
		c0-10.76-4.03-20.57-10.61-28.09h9.18h17.52c15.49,0,28.09,12.6,28.09,28.09h7.49l-7.34,0.01L253.75,389.04z M268.43,389.03
		l-0.08-72.73h-0.15c0-14.72-7.48-27.72-18.84-35.42c11.36-7.7,18.84-20.71,18.84-35.43h0.15v-72.74
		c0-18.15,13.13-33.25,30.38-36.39l0.06,289.1C281.55,422.28,268.43,407.17,268.43,389.03z M298.72,121.44
		c-25.38,3.27-45.05,25.02-45.05,51.27v72.74h-0.15c0,15.49-12.6,28.09-28.09,28.09h-17.52h-9.18c6.58-7.52,10.61-17.34,10.61-28.09
		v-69.19c0-50.71,39.51-92.37,89.37-95.79L298.72,121.44L298.72,121.44z M321.24,14.67c-10.89,9.13-18.62,21.87-21.38,36.37
		c-0.72,3.81-1.14,7.72-1.14,11.74v2.78v0.22v0.09c-0.97,0.06-1.96,0.05-2.92,0.13c-0.33,0.03-0.66,0.04-0.99,0.08
		c-3.02,0.29-6,0.71-8.94,1.24c-0.41,0.07-0.82,0.14-1.23,0.22c-2.93,0.56-5.82,1.23-8.66,2.02c-0.34,0.09-0.68,0.19-1.02,0.29
		c-2.93,0.84-5.82,1.78-8.64,2.85c-0.13,0.05-0.26,0.11-0.4,0.16c-5.35,2.05-10.47,4.56-15.39,7.38
		c-6.18,3.55-12.03,7.62-17.39,12.25c-23.52,20.31-38.46,50.32-38.46,83.77v69.19c0,15.49-12.6,28.09-28.09,28.09h-0.49l-0.04-97.28
		c0-33.44-14.92-63.44-38.44-83.75c-5.37-4.64-11.22-8.71-17.41-12.27c-4.92-2.82-10.04-5.33-15.39-7.39
		c-0.13-0.05-0.26-0.1-0.39-0.15c-2.83-1.07-5.71-2.01-8.64-2.85c-0.34-0.1-0.68-0.2-1.02-0.29c-2.84-0.79-5.73-1.46-8.66-2.02
		c-0.41-0.08-0.82-0.15-1.24-0.22c-2.94-0.53-5.92-0.95-8.94-1.24c-0.33-0.03-0.66-0.05-0.99-0.08c-0.74-0.06-1.49-0.05-2.23-0.1
		v-0.07v-0.27v-2.78c0-4.01-0.42-7.92-1.14-11.72C58.82,36.55,51.08,23.8,40.19,14.67L321.24,14.67L321.24,14.67z"/>
</g>
<path class="st0" d="M524.41,179.88c7.11-3.39,13.31-7.98,18.61-13.77c5.3-5.8,9.45-12.44,12.46-19.93s4.51-15.28,4.51-23.37
	s-1.47-15.83-4.43-23.2c-2.95-7.38-7.08-13.94-12.38-19.68s-11.43-10.28-18.37-13.61c-6.94-3.34-14.46-5-22.55-5h-22.14h-23.94
	h-16.73v4.59h16.73v114.46h-16.73v4.59h61.99C509.65,184.97,517.3,183.27,524.41,179.88z M480.13,180.38V65.91h17.06
	c6.12,0,11.34,0.82,15.66,2.46c4.31,1.64,7.84,4.54,10.58,8.7c2.73,4.16,4.73,9.95,5.99,17.38c1.25,7.44,1.89,16.95,1.89,28.53
	c0,11.7-0.63,21.29-1.89,28.78s-3.28,13.31-6.07,17.46c-2.79,4.16-6.37,7.05-10.74,8.69c-4.38,1.64-9.73,2.46-16.07,2.46
	L480.13,180.38L480.13,180.38z"/>
<path class="st0" d="M629.85,180.38h-20.33v-59.37h8.86c6.23,0,11.37,1.91,15.41,5.74c4.05,3.83,6.23,9.73,6.56,17.71l0.66,15.42
	c0.22,5.03,1.64,9.43,4.27,13.2c2.62,3.77,6.12,6.69,10.49,8.77s9.24,3.12,14.59,3.12h15.91v-4.76h-6.23c-4.26,0-7.21-1.36-8.86-4.1
	c-1.64-2.73-2.46-7.87-2.46-15.42v-7.87c0-5.25-1.45-10.12-4.35-14.59c-2.9-4.48-6.59-8.31-11.07-11.48s-9.13-5.3-13.94-6.4v-0.66
	h-1.52c3.91-0.61,7.6-1.4,10.95-2.46c7.92-2.52,14.02-6.12,18.28-10.83c4.27-4.7,6.4-10.33,6.4-16.89c0-6.01-1.81-11.09-5.41-15.25
	c-3.61-4.15-8.45-7.35-14.51-9.59c-6.07-2.24-12.82-3.36-20.25-3.36h-23.78h-23.94h-16.73v4.59h16.73v114.46h-16.73v4.59h61V180.38z
	 M625.91,65.91c4.26,0,7.82,0.6,10.66,1.8c2.84,1.21,4.97,3.5,6.39,6.89c1.42,3.39,2.13,8.48,2.13,15.25
	c0,7.22-0.85,12.71-2.54,16.48c-1.7,3.77-4.37,6.34-8.03,7.71c-3.66,1.37-8.45,2.05-14.35,2.05h-10.66V65.91H625.91z"/>
<path class="st0" d="M703.97,187.1c3.61,0,6.69-1.31,9.26-3.94c2.57-2.62,3.85-5.74,3.85-9.34c0-3.61-1.29-6.69-3.85-9.26
	c-2.57-2.57-5.66-3.86-9.26-3.86c-3.61,0-6.7,1.29-9.27,3.86s-3.85,5.65-3.85,9.26s1.28,6.72,3.85,9.34
	C697.27,185.79,700.36,187.1,703.97,187.1z"/>
<polygon class="st0" points="814.17,180.38 797.93,180.38 797.93,129.74 802.84,124.47 844.24,180.38 826.3,180.38 826.3,184.97 
	886.49,184.97 886.49,180.38 874.26,180.38 819.63,106.39 857.25,65.91 876.32,65.91 876.32,61.32 829.91,61.32 829.91,65.91 
	849.86,65.91 797.93,121.41 797.93,65.91 814.17,65.91 814.17,61.32 757.27,61.32 757.27,65.91 773.99,65.91 773.99,180.38 
	757.27,180.38 757.27,184.97 814.17,184.97 "/>
<path class="st0" d="M1005.53,123.14c0-8.53-1.5-16.59-4.51-24.19c-3.01-7.6-7.19-14.35-12.54-20.25
	c-5.36-5.91-11.62-10.55-18.78-13.94c-7.16-3.39-14.89-5.08-23.2-5.08c-8.2,0-15.88,1.7-23.04,5.08
	c-7.16,3.39-13.42,8.03-18.78,13.94c-5.35,5.91-9.54,12.66-12.54,20.25c-3.01,7.6-4.51,15.66-4.51,24.19
	c0,8.42,1.5,16.46,4.51,24.11s7.19,14.46,12.54,20.41c5.36,5.96,11.62,10.69,18.78,14.19c7.16,3.5,14.84,5.25,23.04,5.25
	c8.31,0,16.04-1.75,23.2-5.25c7.16-3.5,13.42-8.22,18.78-14.19c5.35-5.95,9.54-12.76,12.54-20.41
	C1004.03,139.6,1005.53,131.56,1005.53,123.14z M975.2,152.08c-1.1,7.6-2.85,13.56-5.25,17.88s-5.52,7.36-9.34,9.1
	c-3.83,1.75-8.53,2.63-14.11,2.63c-5.47,0-10.11-0.85-13.94-2.54c-3.83-1.7-6.94-4.7-9.34-9.02c-2.41-4.32-4.16-10.27-5.25-17.87
	c-1.09-7.6-1.64-17.35-1.64-29.27c0-11.59,0.55-21.16,1.64-28.7c1.09-7.54,2.82-13.44,5.17-17.71c2.35-4.26,5.43-7.27,9.26-9.02
	c3.82-1.75,8.53-2.62,14.1-2.62c5.47,0,10.14,0.87,14.02,2.62s7.03,4.76,9.43,9.02c2.4,4.27,4.15,10.17,5.25,17.71
	c1.09,7.55,1.64,17.17,1.64,28.86C976.84,134.84,976.29,144.49,975.2,152.08z"/>
<path class="st0" d="M1132.46,65.91h18.04v114.46h-17.87h-0.17h-6.07c-4.26,0-7.21-1.36-8.86-4.1c-1.64-2.73-2.46-7.87-2.46-15.42
	v-8.03c0-5.25-1.45-10.12-4.35-14.59c-2.9-4.48-6.59-8.31-11.07-11.48s-9.13-5.3-13.94-6.4v-0.66h-1.52
	c3.91-0.61,7.6-1.4,10.95-2.46c7.92-2.52,14.02-6.12,18.28-10.83c4.27-4.7,6.4-10.33,6.4-16.89c0-6.01-1.81-11.09-5.41-15.25
	c-3.61-4.15-8.45-7.35-14.51-9.59c-6.07-2.24-12.82-3.36-20.25-3.36h-23.78h-23.94h-16.73v4.59h16.73v114.46h-16.73v4.59h61v-4.59
	h-20.33v-59.37h8.86c6.23,0,11.37,1.91,15.41,5.74c4.05,3.83,6.23,9.73,6.56,17.71l0.66,15.42c0.22,5.03,1.64,9.43,4.27,13.2
	c2.62,3.77,6.12,6.69,10.49,8.77s9.24,3.12,14.59,3.12h15.74h0.17h42.8v-4.59h-18.04V74.27h0.66l35.09,112.17h6.23l34.6-112.17h0.66
	v106.1h-17.71v4.59h59.2v-4.59h-17.55V65.91h17.55v-4.59h-45.26l-24.92,80.52h-0.66l-24.6-80.52h-48.21L1132.46,65.91L1132.46,65.91
	z M1055.88,116.09V65.91h16.4c4.26,0,7.82,0.6,10.66,1.8c2.84,1.21,4.97,3.5,6.39,6.89s2.13,8.48,2.13,15.25
	c0,7.22-0.85,12.71-2.54,16.48c-1.7,3.77-4.37,6.34-8.03,7.71s-8.45,2.05-14.35,2.05C1066.54,116.09,1055.88,116.09,1055.88,116.09z
	"/>
<path class="st0" d="M1297.48,167.66c5.36,5.96,11.62,10.69,18.78,14.19s14.84,5.25,23.04,5.25c8.31,0,16.04-1.75,23.2-5.25
	c7.16-3.5,13.42-8.22,18.78-14.19c5.35-5.95,9.54-12.76,12.54-20.41c3.01-7.65,4.51-15.69,4.51-24.11c0-8.53-1.5-16.59-4.51-24.19
	c-3.01-7.6-7.19-14.35-12.54-20.25c-5.36-5.91-11.62-10.55-18.78-13.94s-14.89-5.08-23.2-5.08c-8.2,0-15.88,1.7-23.04,5.08
	c-7.16,3.39-13.42,8.03-18.78,13.94c-5.35,5.91-9.54,12.66-12.54,20.25c-3.01,7.6-4.51,15.66-4.51,24.19
	c0,8.42,1.5,16.46,4.51,24.11S1292.13,161.71,1297.48,167.66z M1310.76,94.28c1.09-7.54,2.82-13.44,5.17-17.71
	c2.35-4.26,5.43-7.27,9.26-9.02c3.82-1.75,8.53-2.62,14.1-2.62c5.47,0,10.14,0.87,14.02,2.62s7.03,4.76,9.43,9.02
	c2.4,4.27,4.15,10.17,5.25,17.71c1.09,7.55,1.64,17.17,1.64,28.86c0,11.7-0.55,21.35-1.64,28.94c-1.1,7.6-2.85,13.56-5.25,17.88
	s-5.52,7.36-9.34,9.1c-3.83,1.75-8.53,2.63-14.11,2.63c-5.47,0-10.11-0.85-13.94-2.54c-3.82-1.7-6.94-4.7-9.34-9.02
	c-2.41-4.32-4.16-10.27-5.25-17.87c-1.09-7.6-1.64-17.35-1.64-29.27C1309.13,111.39,1309.67,101.83,1310.76,94.28z"/>
<path class="st0" d="M1423.75,177.09c4.04,3.06,8.34,5.5,12.88,7.3c4.54,1.81,9.98,2.71,16.31,2.71c12.79,0,22.63-3.61,29.52-10.82
	c6.89-7.22,10.33-17.16,10.33-29.85c0-7.98-1.39-14.68-4.18-20.09s-6.92-9.81-12.38-13.2c-5.47-3.39-12.25-6.07-20.33-8.04
	c-3.83-0.98-7.52-1.97-11.07-2.95c-3.55-0.98-6.78-2.19-9.68-3.61s-5.22-3.25-6.97-5.5c-1.75-2.24-2.62-5.11-2.62-8.61
	c0-3.83,1.15-7.19,3.44-10.09c2.29-2.89,5.38-5.19,9.26-6.88c3.88-1.7,8.12-2.54,12.71-2.54c7.65,0,14.11,2.38,19.35,7.13
	c5.25,4.76,9.35,12.33,12.3,22.71h4.43V61.32h-4.59l-5.41,7.05c-4.15-2.95-8.17-5.14-12.05-6.56c-3.88-1.42-8.39-2.13-13.53-2.13
	c-6.56,0-12.74,1.37-18.53,4.1c-5.8,2.73-10.47,6.8-14.02,12.22c-3.55,5.41-5.33,12.21-5.33,20.42c0,7.11,1.42,13.14,4.27,18.12
	c2.84,4.97,6.97,9.13,12.38,12.46c5.41,3.34,12,5.93,19.76,7.79c3.94,0.98,7.73,2.05,11.4,3.2c3.66,1.15,6.99,2.54,10.01,4.18
	c3,1.64,5.38,3.77,7.13,6.4c1.75,2.63,2.62,5.9,2.62,9.84c0,4.05-1.04,7.85-3.11,11.4c-2.08,3.55-5.17,6.4-9.27,8.53
	s-9.26,3.2-15.5,3.2c-7.21,0-13.28-1.48-18.2-4.43c-4.92-2.95-8.8-6.77-11.64-11.48c-2.84-4.7-4.92-9.73-6.23-15.09h-4.76v34.44
	h4.59L1423.75,177.09z"/>
<path class="st0" d="M538.9,220.7v-1.67v-1.34v-3.35h-91.73v34.32h6.19c0.11-5.35,1.34-10.27,3.69-14.73
	c2.34-4.46,5.66-8.06,9.96-10.8c4.3-2.73,9.46-4.1,15.48-4.1h26.78v0.67l-69.63,114.83v1.17v3.68v1.17h98.42v-41.01h-6.36
	c-0.11,6.36-1.37,12.3-3.77,17.83c-2.4,5.52-5.77,9.96-10.13,13.31c-4.35,3.35-9.65,5.02-15.9,5.02h-32.98v-0.67L538.9,220.7z"/>
<path class="st0" d="M562.84,268.66c2.9,5.08,7.11,9.32,12.64,12.72c5.52,3.4,12.25,6.06,20.17,7.95c4.02,1,7.9,2.09,11.63,3.26
	c3.74,1.17,7.14,2.6,10.21,4.27c3.07,1.67,5.49,3.85,7.28,6.53c1.78,2.68,2.68,6.03,2.68,10.04c0,4.13-1.06,8.01-3.18,11.63
	c-2.12,3.63-5.28,6.53-9.46,8.7c-4.19,2.18-9.46,3.26-15.82,3.26c-7.36,0-13.55-1.51-18.58-4.52c-5.02-3.01-8.99-6.91-11.89-11.72
	c-2.9-4.8-5.02-9.93-6.36-15.4h-4.85v35.15H562l6.86-8.04c4.13,3.13,8.51,5.61,13.14,7.45c4.63,1.84,10.18,2.76,16.65,2.76
	c13.06,0,23.1-3.69,30.13-11.05c7.03-7.37,10.55-17.52,10.55-30.46c0-8.15-1.42-14.99-4.27-20.51c-2.85-5.52-7.06-10.01-12.64-13.47
	s-12.5-6.2-20.76-8.2c-3.91-1-7.68-2.01-11.3-3.01c-3.63-1-6.92-2.23-9.88-3.68s-5.33-3.32-7.11-5.61
	c-1.78-2.28-2.68-5.21-2.68-8.79c0-3.9,1.17-7.34,3.52-10.3c2.34-2.95,5.49-5.3,9.46-7.03c3.96-1.73,8.29-2.59,12.97-2.59
	c7.81,0,14.4,2.42,19.75,7.28c5.36,4.85,9.54,12.58,12.55,23.19h4.52v-34.15h-4.69l-5.52,7.2c-4.24-3.01-8.34-5.24-12.3-6.69
	c-3.96-1.45-8.56-2.18-13.81-2.18c-6.7,0-13,1.4-18.92,4.19c-5.92,2.79-10.68,6.94-14.31,12.47c-3.63,5.52-5.44,12.47-5.44,20.84
	C558.49,257.42,559.94,263.58,562.84,268.66z"/>
<path class="st0" d="M749.65,334.28c6.92-5.63,10.38-14.42,10.38-26.37v-88.88h17.57v-4.69h-40.17v4.69h16.74v88.38
	c0,9.71-2.65,16.96-7.95,21.76c-5.3,4.8-12.53,7.2-21.68,7.2c-8.59,0-15.37-2.23-20.34-6.7c-4.97-4.46-7.45-11.88-7.45-22.26v-88.38
	h16.74v-4.69H654.4v4.69h17.74v89.05c0,7.81,1.93,14.29,5.78,19.42c3.85,5.13,9.29,8.95,16.32,11.46
	c7.03,2.51,15.17,3.77,24.44,3.77C732.41,342.73,742.73,339.91,749.65,334.28z"/>
<path class="st0" d="M796.85,248.66h6.19c0.11-5.35,1.34-10.27,3.69-14.73c2.34-4.46,5.66-8.06,9.96-10.8
	c4.3-2.73,9.46-4.1,15.48-4.1h26.78v0.67l-69.63,114.83v1.17v3.68v1.17h98.42v-41.01h-6.36c-0.11,6.36-1.37,12.3-3.77,17.83
	c-2.4,5.52-5.77,9.96-10.13,13.31c-4.35,3.35-9.65,5.02-15.9,5.02H818.6v-0.67l69.97-114.33v-1.67v-1.34v-3.35h-91.73v34.32H796.85z
	"/>
<path class="st0" d="M964.49,333.77c-4.18,2.18-9.46,3.26-15.82,3.26c-7.36,0-13.55-1.51-18.58-4.52
	c-5.02-3.01-8.99-6.91-11.89-11.72c-2.9-4.8-5.02-9.93-6.36-15.4h-4.85v35.15h4.68l6.86-8.04c4.13,3.13,8.51,5.61,13.14,7.45
	c4.63,1.84,10.18,2.76,16.65,2.76c13.06,0,23.1-3.69,30.13-11.05c7.03-7.37,10.55-17.52,10.55-30.46c0-8.15-1.42-14.99-4.27-20.51
	s-7.06-10.01-12.64-13.47s-12.5-6.2-20.76-8.2c-3.91-1-7.68-2.01-11.3-3.01c-3.63-1-6.92-2.23-9.88-3.68s-5.33-3.32-7.11-5.61
	c-1.78-2.28-2.68-5.21-2.68-8.79c0-3.9,1.17-7.34,3.52-10.3c2.34-2.95,5.49-5.3,9.46-7.03c3.96-1.73,8.29-2.59,12.97-2.59
	c7.81,0,14.4,2.42,19.75,7.28c5.36,4.85,9.54,12.58,12.56,23.19h4.52v-34.15h-4.69l-5.52,7.2c-4.24-3.01-8.34-5.24-12.3-6.69
	c-3.96-1.45-8.56-2.18-13.81-2.18c-6.7,0-13,1.4-18.92,4.19c-5.92,2.79-10.68,6.94-14.31,12.47c-3.63,5.52-5.44,12.47-5.44,20.84
	c0,7.25,1.45,13.42,4.36,18.5c2.9,5.08,7.11,9.32,12.64,12.72c5.52,3.4,12.25,6.06,20.17,7.95c4.02,1,7.9,2.09,11.63,3.26
	c3.74,1.17,7.14,2.6,10.21,4.27c3.06,1.67,5.49,3.85,7.28,6.53c1.78,2.68,2.68,6.03,2.68,10.04c0,4.13-1.06,8.01-3.18,11.63
	C971.82,328.7,968.67,331.6,964.49,333.77z"/>
<path class="st0" d="M1054.41,340.55h57.75v-4.68h-13.65l-42.93-123.2h-4.68l-45.73,123.2H989.8v4.68h40.51v-4.68h-19.62
	l11.89-32.14h39.06l11.27,32.14h-18.49v4.68H1054.41z M1024.24,299.21l18.14-49.04h0.47l17.19,49.04H1024.24z"/>
<polygon class="st0" points="1202.54,219.03 1219.28,219.03 1219.28,292.18 1218.61,292.18 1166.55,214.34 1119.52,214.34 
	1119.52,219.03 1137.93,219.03 1137.93,335.87 1119.52,335.87 1119.52,340.55 1163.21,340.55 1163.21,335.87 1144.8,335.87 
	1144.8,229.74 1145.46,229.74 1219.95,342.73 1226.31,342.73 1226.31,219.03 1243.05,219.03 1243.05,214.34 1202.54,214.34 "/>
<polygon class="st0" points="1276.08,229.74 1350.57,342.73 1356.93,342.73 1356.93,219.03 1373.67,219.03 1373.67,214.34 
	1333.16,214.34 1333.16,219.03 1349.9,219.03 1349.9,292.18 1349.23,292.18 1297.17,214.34 1250.14,214.34 1250.14,219.03 
	1268.55,219.03 1268.55,335.87 1250.14,335.87 1250.14,340.55 1293.82,340.55 1293.82,335.87 1275.41,335.87 1275.41,229.74 "/>
<path class="st0" d="M1435.04,340.55h57.75v-4.68h-13.65l-42.93-123.2h-4.69l-45.73,123.2h-15.37v4.68h40.51v-4.68h-19.62
	l11.89-32.14h39.06l11.27,32.14h-18.49L1435.04,340.55L1435.04,340.55z M1404.88,299.21l18.14-49.04h0.47l17.19,49.04H1404.88z"/>
<path class="st0" d="M764.95,401.68c-0.91-0.41-1.86-0.61-2.86-0.61c-1.04,0-2.01,0.21-2.91,0.61c-0.91,0.41-1.7,0.95-2.36,1.64
	c-0.67,0.68-1.19,1.48-1.58,2.38c-0.39,0.91-0.58,1.86-0.58,2.86s0.19,1.94,0.58,2.83c0.39,0.89,0.91,1.67,1.58,2.33
	c0.66,0.67,1.45,1.18,2.36,1.55c0.9,0.37,1.88,0.56,2.91,0.56c1,0,1.95-0.19,2.86-0.56s1.7-0.88,2.39-1.55
	c0.68-0.66,1.22-1.44,1.61-2.33c0.39-0.89,0.58-1.83,0.58-2.83s-0.19-1.95-0.58-2.86c-0.39-0.9-0.92-1.7-1.61-2.38
	C766.66,402.64,765.86,402.09,764.95,401.68z"/>
<path class="st0" d="M740.45,401.68c-0.92-0.41-1.91-0.61-2.94-0.61c-0.96,0-1.88,0.21-2.75,0.61s-1.63,0.95-2.3,1.64
	c-0.66,0.68-1.2,1.48-1.61,2.38c-0.41,0.91-0.61,1.86-0.61,2.86s0.21,1.94,0.61,2.83s0.95,1.67,1.61,2.33
	c0.67,0.67,1.43,1.18,2.3,1.55s1.79,0.56,2.75,0.56c1.04,0,2.02-0.19,2.94-0.56c0.93-0.37,1.73-0.88,2.42-1.55
	c0.68-0.66,1.23-1.44,1.63-2.33c0.41-0.89,0.61-1.83,0.61-2.83s-0.2-1.95-0.61-2.86c-0.41-0.9-0.95-1.7-1.63-2.38
	C742.18,402.64,741.38,402.09,740.45,401.68z"/>
<path class="st0" d="M768.2,468.9c0,3.07-0.42,5.85-1.25,8.33c-0.83,2.48-2.03,4.59-3.58,6.32c-1.56,1.74-3.47,3.09-5.75,4.06
	c-2.27,0.96-4.85,1.44-7.74,1.44s-5.46-0.48-7.74-1.44c-2.28-0.96-4.2-2.32-5.78-4.08c-1.57-1.76-2.78-3.88-3.61-6.36
	c-0.83-2.48-1.25-5.25-1.25-8.32v-48.01h-14.93v48.07c0,4.77,0.77,9.19,2.3,13.24c1.54,4.05,3.74,7.55,6.61,10.49
	s6.35,5.24,10.46,6.88c4.11,1.64,8.75,2.47,13.93,2.47c5.14,0,9.77-0.83,13.88-2.47c4.11-1.65,7.6-3.94,10.46-6.88
	c2.87-2.94,5.07-6.44,6.61-10.49c1.53-4.05,2.3-8.46,2.3-13.24v-48.07H768.2V468.9z"/>
<path class="st0" d="M850.62,469.28c0,0.78,0.27,1.44,0.81,1.97c0.54,0.54,1.29,0.8,2.25,0.8h10.1v14.55
	c-2.22,1.07-4.5,1.92-6.83,2.55s-4.98,0.94-7.94,0.94c-4.14,0-7.9-0.65-11.26-1.97s-6.24-3.22-8.63-5.72
	c-2.38-2.5-4.24-5.55-5.55-9.16c-1.31-3.61-1.97-7.71-1.97-12.29c0-4.29,0.61-8.18,1.83-11.66c1.22-3.48,2.96-6.46,5.22-8.94
	c2.26-2.48,4.99-4.39,8.19-5.72s6.78-2,10.74-2c2.45,0,4.6,0.17,6.47,0.5s3.55,0.76,5.05,1.28s2.86,1.13,4.08,1.83
	c1.22,0.71,2.44,1.41,3.66,2.11c1.26,0.78,2.42,1.05,3.5,0.8c1.07-0.24,1.94-0.89,2.61-1.97l4.28-6.77c-1.67-1.55-3.5-2.98-5.5-4.27
	c-2-1.29-4.21-2.4-6.63-3.31c-2.42-0.9-5.05-1.61-7.88-2.14c-2.83-0.52-5.88-0.78-9.13-0.78c-6.4,0-12.18,1-17.32,3
	s-9.52,4.81-13.13,8.44s-6.39,7.95-8.35,12.99c-1.96,5.03-2.94,10.56-2.94,16.6c0,5.96,1.02,11.45,3.05,16.48
	c2.03,5.03,4.93,9.36,8.68,12.99s8.29,6.46,13.6,8.49s11.24,3.05,17.78,3.05c5.25,0,10.18-0.69,14.79-2.08
	c4.6-1.39,8.94-3.58,13.01-6.58v-32.47h-26.64L850.62,469.28L850.62,469.28z"/>
<path class="st0" d="M948.08,421.89c-0.82,0.7-1.43,1.46-1.83,2.27l-14.59,26.81c-0.82,1.59-1.54,3.09-2.17,4.5
	s-1.18,2.81-1.66,4.22c-0.52-1.4-1.1-2.81-1.75-4.22c-0.65-1.4-1.4-2.9-2.25-4.5l-14.65-26.81c-0.52-0.96-1.16-1.75-1.92-2.38
	s-1.79-0.95-3.08-0.95h-13.15l29.25,49.18v31.08h14.88v-31.08l29.25-49.18H951.2C949.93,420.83,948.89,421.18,948.08,421.89z"/>
<path class="st0" d="M1037.24,421.89c-0.87,0.7-1.45,1.48-1.75,2.33l-18.82,48.95c-0.63,1.59-1.2,3.34-1.72,5.25
	c-0.52,1.91-1,3.89-1.44,5.97c-0.52-2.07-1.07-4.06-1.64-5.97s-1.18-3.65-1.8-5.25l-18.93-48.95c-0.41-1-1.02-1.81-1.83-2.44
	s-1.87-0.95-3.16-0.95h-11.99l32.42,80.26h13.49l32.41-80.26h-12.04C1039.18,420.83,1038.11,421.18,1037.24,421.89z"/>
<polygon class="st0" points="1071.91,501.09 1122.52,501.09 1122.52,489.16 1086.89,489.16 1086.89,466.46 1114.97,466.46 
	1114.97,454.97 1086.89,454.97 1086.89,432.71 1122.52,432.71 1122.52,420.83 1071.91,420.83 "/>
<path class="st0" d="M1104.18,397.85c-0.53,0.04-1.03,0.13-1.47,0.28s-0.85,0.38-1.22,0.7c-0.37,0.31-0.74,0.73-1.11,1.25
	l-11.6,15.04h9.94c1.03,0,1.89-0.08,2.55-0.22c0.67-0.15,1.37-0.55,2.11-1.22l17.98-15.87h-15.26
	C1105.35,397.8,1104.71,397.82,1104.18,397.85z"/>
<path class="st0" d="M1206.88,432.07c-3.55-3.53-7.82-6.29-12.82-8.27c-4.99-1.98-10.54-2.97-16.65-2.97h-30.58v80.26h30.58
	c6.1,0,11.66-0.98,16.65-2.94c5-1.96,9.27-4.71,12.82-8.27c3.55-3.55,6.31-7.79,8.27-12.71c1.96-4.92,2.94-10.32,2.94-16.2
	c0-5.89-0.98-11.29-2.94-16.21C1213.19,439.83,1210.44,435.61,1206.88,432.07z M1201.03,472.81c-1.17,3.5-2.85,6.46-5.05,8.88
	c-2.2,2.43-4.86,4.28-7.99,5.58s-6.65,1.94-10.57,1.94h-15.6v-56.5h15.6c3.92,0,7.44,0.64,10.57,1.94s5.79,3.16,7.99,5.58
	c2.2,2.42,3.89,5.38,5.05,8.88c1.17,3.5,1.75,7.45,1.75,11.85S1202.2,469.31,1201.03,472.81z"/>
<rect x="439.27" y="451.12" class="st0" width="246.99" height="4.89"/>
<rect x="1246.15" y="451.12" class="st0" width="246.99" height="4.89"/>
</svg>
